name pl12_filtered_grf.mot
datacolumns 37
datarows 15
range 0.981500 0.988500
endheader
time	1_ground_force_vx	1_ground_force_vy	1_ground_force_vz	1_ground_force_px	1_ground_force_py	1_ground_force_pz	1_ground_torque_x	1_ground_torque_y	1_ground_torque_z	2_ground_force_vx	2_ground_force_vy	2_ground_force_vz	2_ground_force_px	2_ground_force_py	2_ground_force_pz	2_ground_torque_x	2_ground_torque_y	2_ground_torque_z	3_ground_force_vx	3_ground_force_vy	3_ground_force_vz	3_ground_force_px	3_ground_force_py	3_ground_force_pz	3_ground_torque_x	3_ground_torque_y	3_ground_torque_z	4_ground_force_vx	4_ground_force_vy	4_ground_force_vz	4_ground_force_px	4_ground_force_py	4_ground_force_pz	4_ground_torque_x	4_ground_torque_y	4_ground_torque_z
            0.981500	          -13.485881	          256.879847	           -2.848714	            0.083762	            0.000000	            0.238751	           -0.305503	            5.819239	           -0.064533	           17.030443	          232.552595	          -14.465040	           -0.152323	            0.000000	            0.241053	           -0.069871	           -0.954096	            0.059346	           21.356166	            2.022602	            0.414434	            0.375856	            1.310924	            1.913812	           -0.100283	           -0.009498	           -0.001946	          -17.747829	           -0.091382	            1.530203	           -0.265193	            1.309965	            1.924928	            0.018445	            0.000095	           -0.001590
            0.982000	          -13.617768	          256.742116	           -2.881485	            0.083839	            0.000000	            0.238806	           -0.307581	            5.798962	           -0.065083	           17.055010	          231.948349	          -14.509067	           -0.152331	            0.000000	            0.241036	           -0.069921	           -0.950923	            0.059483	           21.362222	            2.016537	            0.394186	            0.375858	            1.310934	            1.913813	           -0.100459	           -0.009483	           -0.001854	          -17.736067	           -0.100352	            1.529536	           -0.265188	            1.309963	            1.924919	            0.018526	            0.000105	           -0.001598
            0.982500	          -13.749068	          256.616547	           -2.912040	            0.083914	            0.000000	            0.238861	           -0.309608	            5.778606	           -0.065575	           17.079622	          231.346674	          -14.550023	           -0.152339	            0.000000	            0.241018	           -0.069963	           -0.947656	            0.059601	           21.367581	            2.010022	            0.374435	            0.375860	            1.310945	            1.913814	           -0.100624	           -0.009466	           -0.001763	          -17.724792	           -0.109917	            1.528925	           -0.265183	            1.309962	            1.924911	            0.018615	            0.000115	           -0.001606
            0.983000	          -13.879729	          256.503047	           -2.940327	            0.083988	            0.000000	            0.238913	           -0.311583	            5.758175	           -0.066007	           17.104222	          230.747581	          -14.588020	           -0.152345	            0.000000	            0.240998	           -0.069997	           -0.944312	            0.059700	           21.372317	            2.003139	            0.355314	            0.375859	            1.310954	            1.913814	           -0.100776	           -0.009445	           -0.001675	          -17.714067	           -0.119982	            1.528219	           -0.265178	            1.309960	            1.924903	            0.018713	            0.000127	           -0.001614
            0.983500	          -14.009693	          256.401490	           -2.966279	            0.084060	            0.000000	            0.238963	           -0.313505	            5.737681	           -0.066379	           17.128749	          230.151096	          -14.623169	           -0.152351	            0.000000	            0.240977	           -0.070026	           -0.940908	            0.059783	           21.376516	            1.995974	            0.336739	            0.375859	            1.310963	            1.913815	           -0.100916	           -0.009423	           -0.001590	          -17.703944	           -0.130444	            1.527304	           -0.265173	            1.309958	            1.924895	            0.018822	            0.000139	           -0.001624
            0.984000	          -14.138896	          256.311715	           -2.989818	            0.084130	            0.000000	            0.239009	           -0.315374	            5.717138	           -0.066689	           17.153140	          229.557262	          -14.655575	           -0.152356	            0.000000	            0.240955	           -0.070050	           -0.937466	            0.059850	           21.380264	            1.988618	            0.318733	            0.375859	            1.310972	            1.913816	           -0.101042	           -0.009398	           -0.001506	          -17.694467	           -0.141214	            1.526045	           -0.265168	            1.309956	            1.924887	            0.018940	            0.000151	           -0.001633
            0.984500	          -14.267271	          256.233536	           -3.010856	            0.084197	            0.000000	            0.239052	           -0.317189	            5.696564	           -0.066937	           17.177327	          228.966138	          -14.685337	           -0.152360	            0.000000	            0.240932	           -0.070070	           -0.934006	            0.059905	           21.383647	            1.981162	            0.301314	            0.375858	            1.310981	            1.913817	           -0.101156	           -0.009372	           -0.001425	          -17.685667	           -0.152210	            1.524314	           -0.265163	            1.309955	            1.924878	            0.019069	            0.000164	           -0.001644
            0.985000	          -14.394744	          256.166732	           -3.029293	            0.084261	            0.000000	            0.239091	           -0.318950	            5.675983	           -0.067121	           17.201240	          228.377796	          -14.712544	           -0.152364	            0.000000	            0.240907	           -0.070089	           -0.930553	            0.059948	           21.386755	            1.973701	            0.284498	            0.375858	            1.310990	            1.913818	           -0.101258	           -0.009345	           -0.001347	          -17.677568	           -0.163361	            1.521987	           -0.265158	            1.309953	            1.924870	            0.019208	            0.000177	           -0.001654
            0.985500	          -14.521238	          256.111056	           -3.045022	            0.084323	            0.000000	            0.239126	           -0.320657	            5.655421	           -0.067240	           17.224807	          227.792323	          -14.737276	           -0.152367	            0.000000	            0.240882	           -0.070106	           -0.927129	            0.059982	           21.389669	            1.966328	            0.268531	            0.375856	            1.310997	            1.913819	           -0.101348	           -0.009317	           -0.001272	          -17.670185	           -0.174608	            1.518914	           -0.265153	            1.309951	            1.924863	            0.019355	            0.000191	           -0.001664
            0.986000	          -14.646672	          256.066231	           -3.057925	            0.084381	            0.000000	            0.239155	           -0.322310	            5.634908	           -0.067292	           17.247957	          227.209817	          -14.759599	           -0.152368	            0.000000	            0.240855	           -0.070124	           -0.923758	            0.060008	           21.392475	            1.959134	            0.253192	            0.375854	            1.311004	            1.913819	           -0.101426	           -0.009289	           -0.001200	          -17.663515	           -0.185891	            1.515023	           -0.265149	            1.309949	            1.924855	            0.019510	            0.000205	           -0.001673
            0.986500	          -14.770962	          256.031954	           -3.067881	            0.084436	            0.000000	            0.239179	           -0.323910	            5.614477	           -0.067275	           17.270618	          226.630393	          -14.779567	           -0.152370	            0.000000	            0.240827	           -0.070145	           -0.920464	            0.060028	           21.395253	            1.952209	            0.238488	            0.375852	            1.311010	            1.913820	           -0.101494	           -0.009261	           -0.001131	          -17.657550	           -0.197166	            1.510220	           -0.265145	            1.309948	            1.924847	            0.019672	            0.000220	           -0.001682
            0.987000	          -14.894020	          256.007896	           -3.074760	            0.084487	            0.000000	            0.239199	           -0.325457	            5.594161	           -0.067188	           17.292718	          226.054175	          -14.797215	           -0.152370	            0.000000	            0.240798	           -0.070169	           -0.917270	            0.060043	           21.398074	            1.945640	            0.224427	            0.375850	            1.311017	            1.913820	           -0.101552	           -0.009234	           -0.001065	          -17.652271	           -0.208400	            1.504426	           -0.265141	            1.309946	            1.924840	            0.019838	            0.000234	           -0.001691
            0.987500	          -15.015756	          255.993701	           -3.078430	            0.084535	            0.000000	            0.239212	           -0.326953	            5.573998	           -0.067030	           17.314190	          225.481299	          -14.812566	           -0.152369	            0.000000	            0.240768	           -0.070199	           -0.914199	            0.060057	           21.401007	            1.939508	            0.211011	            0.375848	            1.311024	            1.913821	           -0.101602	           -0.009208	           -0.001002	          -17.647651	           -0.219566	            1.497579	           -0.265136	            1.309944	            1.924832	            0.020006	            0.000249	           -0.001698
            0.988000	          -15.136080	          255.988987	           -3.078758	            0.084579	            0.000000	            0.239221	           -0.328397	            5.554023	           -0.066798	           17.334967	          224.911910	          -14.825621	           -0.152368	            0.000000	            0.240737	           -0.070236	           -0.911271	            0.060069	           21.404107	            1.933888	            0.198571	            0.375844	            1.311028	            1.913820	           -0.101645	           -0.009184	           -0.000943	          -17.643659	           -0.230657	            1.489594	           -0.265133	            1.309943	            1.924825	            0.020174	            0.000264	           -0.001703
            0.988500	          -15.254900	          255.993352	           -3.075607	            0.084620	            0.000000	            0.239224	           -0.329793	            5.534274	           -0.066491	           17.354988	          224.346166	          -14.836365	           -0.152366	            0.000000	            0.240705	           -0.070280	           -0.908505	            0.060081	           21.407431	            1.928851	            0.186776	            0.375841	            1.311032	            1.913820	           -0.101683	           -0.009162	           -0.000887	          -17.640250	           -0.241661	            1.480484	           -0.265129	            1.309941	            1.924818	            0.020339	            0.000279	           -0.001707
